<svg width="18" height="19" viewBox="0 0 18 19" fill="none" xmlns="http://www.w3.org/2000/svg">
<path d="M8.99962 0C4.02971 0 0 4.0325 0 9.00585C0 13.9792 4.02971 18.0125 8.99962 18.0125C13.9695 18.0125 18 13.9792 18 9.00585C18 4.0325 13.9695 0 8.99962 0ZM10.8731 13.9578C10.4099 14.1408 10.0411 14.2796 9.76457 14.3757C9.48876 14.4717 9.168 14.5198 8.80305 14.5198C8.24229 14.5198 7.80571 14.3825 7.49486 14.1088C7.184 13.8351 7.02933 13.4882 7.02933 13.0666C7.02933 12.9026 7.04076 12.7349 7.06362 12.5641C7.08724 12.3933 7.12457 12.2012 7.17562 11.9854L7.75543 9.93601C7.80648 9.7393 7.85067 9.55251 7.88571 9.37867C7.92076 9.20331 7.93752 9.04244 7.93752 8.89605C7.93752 8.6353 7.88343 8.45232 7.776 8.34939C7.66705 8.24646 7.4621 8.19614 7.15657 8.19614C7.00724 8.19614 6.85333 8.21825 6.69562 8.26476C6.53943 8.31279 6.40381 8.35625 6.29257 8.39895L6.44571 7.76765C6.82514 7.61288 7.18857 7.48022 7.53524 7.37043C7.88191 7.25911 8.20952 7.20422 8.5181 7.20422C9.07505 7.20422 9.50476 7.33993 9.80724 7.60831C10.1082 7.87745 10.2598 8.2274 10.2598 8.65741C10.2598 8.74662 10.2491 8.90368 10.2286 9.12783C10.208 9.35275 10.1691 9.55785 10.1128 9.74617L9.536 11.7895C9.48876 11.9534 9.44686 12.141 9.40876 12.3506C9.37143 12.5603 9.35314 12.7204 9.35314 12.8279C9.35314 13.0993 9.41333 13.2846 9.53524 13.383C9.65562 13.4813 9.86667 13.5309 10.1653 13.5309C10.3063 13.5309 10.464 13.5057 10.6423 13.4569C10.819 13.4081 10.947 13.3647 11.0278 13.3273L10.8731 13.9578ZM10.771 5.66411C10.5021 5.91418 10.1783 6.03922 9.79962 6.03922C9.42171 6.03922 9.09562 5.91418 8.82438 5.66411C8.55467 5.41403 8.41829 5.10982 8.41829 4.75452C8.41829 4.39999 8.55543 4.09502 8.82438 3.84266C9.09562 3.58953 9.42171 3.46373 9.79962 3.46373C10.1783 3.46373 10.5029 3.58953 10.771 3.84266C11.04 4.09502 11.1749 4.39999 11.1749 4.75452C11.1749 5.11058 11.04 5.41403 10.771 5.66411Z" fill="#0BB462"/>
</svg>
