<svg width="18" height="19" viewBox="0 0 18 19" fill="none" xmlns="http://www.w3.org/2000/svg">
<path d="M8.99962 0C4.02971 0 0 4.03247 0 9.00578C0 13.9791 4.02971 18.0123 8.99962 18.0123C13.9695 18.0123 18 13.9791 18 9.00578C18 4.03247 13.9695 0 8.99962 0ZM10.8731 13.9577C10.4099 14.1407 10.0411 14.2795 9.76457 14.3756C9.48876 14.4716 9.168 14.5197 8.80305 14.5197C8.24229 14.5197 7.80571 14.3824 7.49486 14.1087C7.184 13.835 7.02933 13.4881 7.02933 13.0665C7.02933 12.9025 7.04076 12.7348 7.06362 12.564C7.08724 12.3932 7.12457 12.2011 7.17562 11.9853L7.75543 9.93594C7.80648 9.73924 7.85067 9.55244 7.88571 9.37861C7.92076 9.20325 7.93752 9.04238 7.93752 8.89599C7.93752 8.63524 7.88343 8.45226 7.776 8.34933C7.66705 8.24641 7.4621 8.19609 7.15657 8.19609C7.00724 8.19609 6.85333 8.2182 6.69562 8.2647C6.53943 8.31274 6.40381 8.3562 6.29257 8.39889L6.44571 7.7676C6.82514 7.61283 7.18857 7.48017 7.53524 7.37038C7.88191 7.25906 8.20952 7.20417 8.5181 7.20417C9.07505 7.20417 9.50476 7.33988 9.80724 7.60826C10.1082 7.87739 10.2598 8.22735 10.2598 8.65735C10.2598 8.74656 10.2491 8.90362 10.2286 9.12777C10.208 9.35269 10.1691 9.55778 10.1128 9.7461L9.536 11.7894C9.48876 11.9533 9.44686 12.1409 9.40876 12.3505C9.37143 12.5602 9.35314 12.7203 9.35314 12.8278C9.35314 13.0993 9.41333 13.2845 9.53524 13.3829C9.65562 13.4812 9.86667 13.5308 10.1653 13.5308C10.3063 13.5308 10.464 13.5056 10.6423 13.4568C10.819 13.408 10.947 13.3646 11.0278 13.3272L10.8731 13.9577ZM10.771 5.66407C10.5021 5.91414 10.1783 6.03918 9.79962 6.03918C9.42171 6.03918 9.09562 5.91414 8.82438 5.66407C8.55467 5.41399 8.41829 5.10978 8.41829 4.75449C8.41829 4.39996 8.55543 4.09499 8.82438 3.84263C9.09562 3.5895 9.42171 3.4637 9.79962 3.4637C10.1783 3.4637 10.5029 3.5895 10.771 3.84263C11.04 4.09499 11.1749 4.39996 11.1749 4.75449C11.1749 5.11055 11.04 5.41399 10.771 5.66407Z" fill="#BBFFDE"/>
</svg>
