<svg width="35" height="35" viewBox="0 0 35 35" fill="none" xmlns="http://www.w3.org/2000/svg">
<path d="M17.488 35C7.84502 35 0 27.1496 0 17.5C0 7.85038 7.84502 0 17.488 0C27.1311 0 34.9761 7.85038 34.9761 17.5C34.9761 27.1496 27.1311 35 17.488 35ZM17.488 2.49992C9.22274 2.49992 2.49822 9.22905 2.49822 17.5C2.49822 25.771 9.22274 32.5001 17.488 32.5001C25.7533 32.5001 32.4779 25.771 32.4779 17.5C32.4779 9.22905 25.7533 2.49992 17.488 2.49992Z" fill="black"/>
<path d="M23.7338 25.0001C23.4142 25.0001 23.0945 24.8781 22.8506 24.6338L10.3592 12.134C9.87115 11.6456 9.87115 10.8547 10.3592 10.3666C10.847 9.87844 11.6377 9.87817 12.1255 10.3666L24.6168 22.8663C25.1049 23.3547 25.1049 24.1456 24.6168 24.6338C24.3729 24.8781 24.0535 25.0001 23.7338 25.0001Z" fill="black"/>
<path d="M11.2422 25.0001C10.9225 25.0001 10.6031 24.8781 10.3592 24.6338C9.87115 24.1456 9.87115 23.3545 10.3592 22.8663L22.8506 10.3667C23.3386 9.87827 24.129 9.87827 24.6168 10.3667C25.1046 10.8548 25.1049 11.646 24.6168 12.1341L12.1255 24.6338C11.8816 24.8781 11.5619 25.0001 11.2422 25.0001Z" fill="black"/>
</svg>
