<svg width="53" height="61" viewBox="0 0 53 61" fill="none" xmlns="http://www.w3.org/2000/svg">
<path d="M37.1797 28.3789C28.4258 28.3789 21.3594 35.4502 21.3594 44.2101C21.3594 52.97 28.4258 60.0413 37.1797 60.0413C45.9336 60.0413 53 52.97 53 44.2101C53 35.4502 45.9336 28.3789 37.1797 28.3789ZM44.2109 45.9691H37.1797C36.1952 45.9691 35.4219 45.195 35.4219 44.2101V37.174C35.4219 36.1889 36.1952 35.415 37.1797 35.415C38.1642 35.415 38.9375 36.1889 38.9375 37.174V42.4511H44.2109C45.1954 42.4511 45.9688 43.2249 45.9688 44.2101C45.9688 45.195 45.1954 45.9691 44.2109 45.9691ZM2.02344 21.3428C1.05266 21.3428 0.265625 22.1304 0.265625 23.1018C0.265625 24.0733 1.05266 24.8609 2.02344 24.8609C2.99422 24.8609 3.78125 24.0733 3.78125 23.1018C3.78125 22.1304 2.99422 21.3428 2.02344 21.3428ZM2.02344 28.3789C1.05266 28.3789 0.265625 29.1665 0.265625 30.1379C0.265625 31.1094 1.05266 31.897 2.02344 31.897C2.99422 31.897 3.78125 31.1094 3.78125 30.1379C3.78125 29.1665 2.99422 28.3789 2.02344 28.3789ZM2.02344 35.415C1.05266 35.415 0.265625 36.2026 0.265625 37.174C0.265625 38.1455 1.05266 38.933 2.02344 38.933C2.99422 38.933 3.78125 38.1455 3.78125 37.174C3.78125 36.2026 2.99422 35.415 2.02344 35.415ZM19.6016 21.3428H9.05469C8.08309 21.3428 7.29688 22.1296 7.29688 23.1018C7.29688 24.0741 8.08309 24.8609 9.05469 24.8609H19.6016C20.5732 24.8609 21.3594 24.0741 21.3594 23.1018C21.3594 22.1296 20.5732 21.3428 19.6016 21.3428ZM19.6016 28.3789H9.05469C8.08309 28.3789 7.29688 29.1657 7.29688 30.1379C7.29688 31.1102 8.08309 31.897 9.05469 31.897H19.6016C20.5732 31.897 21.3594 31.1102 21.3594 30.1379C21.3594 29.1657 20.5732 28.3789 19.6016 28.3789ZM19.6016 35.415H9.05469C8.08309 35.415 7.29688 36.2018 7.29688 37.174C7.29688 38.1463 8.08309 38.933 9.05469 38.933H19.6016C20.5732 38.933 21.3594 38.1463 21.3594 37.174C21.3594 36.2018 20.5732 35.415 19.6016 35.415ZM2.02344 10.5541H19.6016C20.5723 10.5541 21.3594 9.76657 21.3594 8.79512V5.27707C21.3594 4.30562 20.5723 3.51805 19.6016 3.51805H14.5409L14.1255 2.34654C13.6312 0.943071 12.2991 0 10.8125 0C9.32586 0 7.99379 0.943071 7.49949 2.34654L7.08406 3.51805H2.02344C1.05266 3.51805 0.265625 4.30562 0.265625 5.27707V8.79512C0.265625 9.76657 1.05266 10.5541 2.02344 10.5541Z" fill="url(#paint0_linear)"/>
<defs>
<linearGradient id="paint0_linear" x1="26.6328" y1="60.0413" x2="26.6328" y2="0" gradientUnits="userSpaceOnUse">
<stop stop-color="#00B59C"/>
<stop offset="1" stop-color="#9CFFAC"/>
</linearGradient>
</defs>
</svg>
