<svg width="46" height="61" viewBox="0 0 46 61" fill="none" xmlns="http://www.w3.org/2000/svg">
<path d="M38.3278 23.2777C35.7614 19.8651 32.8082 17.3674 29.6442 15.8898C33.3005 13.4272 35.3044 8.44318 35.3044 1.75902C35.3044 0.773852 34.5311 0 33.5466 0H30.031C27.1482 0 24.617 1.37215 22.9997 3.51804C21.3824 1.37215 18.8513 0 15.9685 0H12.4529C11.4684 0 10.695 0.773852 10.695 1.75902C10.695 8.44318 12.6989 13.4272 16.3552 15.8898C13.1912 17.3674 10.238 19.865 7.67172 23.2776C1.4138 31.6507 -1.3987 43.5768 0.956648 51.6331C2.43344 56.5935 7.21457 60.0413 12.6286 60.0413H33.3708C38.7847 60.0413 43.566 56.5935 45.0427 51.6331C47.3981 43.5768 44.5856 31.6507 38.3278 23.2777ZM21.2419 35.415H24.7575C27.6756 35.415 30.031 37.772 30.031 40.692C30.031 43.6119 27.6756 45.9691 24.7575 45.9691V47.7281C24.7575 48.713 23.9842 49.4871 22.9997 49.4871C22.0152 49.4871 21.2419 48.713 21.2419 47.7281V45.9691C18.3238 45.9691 15.9685 43.6119 15.9685 40.692C15.9685 39.7069 16.7418 38.933 17.7263 38.933C18.7108 38.933 19.4841 39.7069 19.4841 40.692C19.4841 41.677 20.2574 42.451 21.2419 42.451H24.7575C25.742 42.451 26.5153 41.677 26.5153 40.692C26.5153 39.7069 25.742 38.933 24.7575 38.933H21.2419C18.3238 38.933 15.9685 36.5758 15.9685 33.6559C15.9685 30.736 18.3238 28.3789 21.2419 28.3789V26.6199C21.2419 25.6347 22.0152 24.8608 22.9997 24.8608C23.9842 24.8608 24.7575 25.6347 24.7575 26.6199V28.3789C27.6756 28.3789 30.031 30.736 30.031 33.6559C30.031 34.6409 29.2576 35.415 28.2732 35.415C27.2887 35.415 26.5153 34.6409 26.5153 33.6559C26.5153 32.6708 25.742 31.8969 24.7575 31.8969H21.2419C20.2574 31.8969 19.4841 32.6708 19.4841 33.6559C19.4841 34.6409 20.2574 35.415 21.2419 35.415Z" fill="url(#paint0_linear)"/>
<defs>
<linearGradient id="paint0_linear" x1="22.9997" y1="60.0413" x2="22.9997" y2="0" gradientUnits="userSpaceOnUse">
<stop stop-color="#00B59C"/>
<stop offset="1" stop-color="#9CFFAC"/>
</linearGradient>
</defs>
</svg>
