<svg width="15" height="13" viewBox="0 0 15 13" fill="none" xmlns="http://www.w3.org/2000/svg">
<path d="M0.312724 1.87281C2.37141 3.61736 5.98377 6.68657 7.04549 7.64355C7.18802 7.77271 7.34089 7.83838 7.49959 7.83838C7.65797 7.83838 7.81057 7.77333 7.95278 7.64478C9.01541 6.68686 12.6278 3.61736 14.6865 1.87281C14.8147 1.7644 14.8342 1.57385 14.7304 1.44132C14.4905 1.13507 14.1329 0.959473 13.7496 0.959473H1.24961C0.866317 0.959473 0.508632 1.13507 0.268779 1.44135C0.16501 1.57385 0.18455 1.7644 0.312724 1.87281Z" fill="white"/>
<path d="M14.8187 2.81773C14.708 2.76613 14.5777 2.78413 14.4855 2.86294C12.2024 4.79972 9.28863 7.28228 8.37188 8.10895C7.85733 8.57375 7.14322 8.57375 6.62748 8.10834C5.65031 7.22728 2.3782 4.44363 0.514512 2.86291C0.421729 2.7841 0.291123 2.76672 0.18126 2.8177C0.0708105 2.86903 0 2.97959 0 3.10144V10.9659C0 11.6558 0.560596 12.2168 1.25001 12.2168H13.75C14.4394 12.2168 15 11.6558 15 10.9659V3.10144C15 2.97959 14.9292 2.86874 14.8187 2.81773Z" fill="white"/>
</svg>
