<svg width="20" height="21" viewBox="0 0 20 21" fill="none" xmlns="http://www.w3.org/2000/svg">
<path d="M10 20.7466C4.48578 20.7466 0 16.2577 0 10.7397C0 5.22176 4.48578 0.73291 10 0.73291C15.5142 0.73291 20 5.22176 20 10.7397C20 16.2577 15.5142 20.7466 10 20.7466ZM10 1.98376C5.17502 1.98376 1.25 5.91147 1.25 10.7397C1.25 15.568 5.17502 19.4957 10 19.4957C14.825 19.4957 18.75 15.568 18.75 10.7397C18.75 5.91147 14.825 1.98376 10 1.98376Z" fill="black"/>
<path d="M14.375 11.3647H5.625C5.28 11.3647 5 11.0845 5 10.7393C5 10.394 5.28 10.1138 5.625 10.1138H14.375C14.72 10.1138 15 10.394 15 10.7393C15 11.0845 14.72 11.3647 14.375 11.3647Z" fill="black"/>
<path d="M10 15.7427C9.655 15.7427 9.375 15.4625 9.375 15.1172V6.36127C9.375 6.01603 9.655 5.73584 10 5.73584C10.345 5.73584 10.625 6.01603 10.625 6.36127V15.1172C10.625 15.4625 10.345 15.7427 10 15.7427Z" fill="black"/>
</svg>
