<svg width="35" height="35" viewBox="0 0 35 35" fill="none" xmlns="http://www.w3.org/2000/svg">
<path d="M26.221 11.7467C25.6826 11.1786 24.7851 11.1536 24.2165 11.6937L15.1643 20.2844L10.8467 15.8483C10.2999 15.2869 9.40327 15.2746 8.84174 15.8219C8.28069 16.3686 8.26887 17.2668 8.81524 17.8282L14.1089 23.267C14.3863 23.5522 14.755 23.696 15.1246 23.696C15.4754 23.696 15.8261 23.5664 16.1007 23.3068L26.1681 13.7526C26.7362 13.2134 26.7602 12.3152 26.221 11.7467Z" fill="#00A857"/>
<path d="M17.488 0C7.84503 0 0 7.85039 0 17.5C0 27.1496 7.84503 35 17.488 35C27.1311 35 34.9761 27.1496 34.9761 17.5C34.9761 7.85039 27.1311 0 17.488 0ZM17.488 32.1622C9.40905 32.1622 2.83586 25.5851 2.83586 17.5C2.83586 9.41548 9.40898 2.8378 17.488 2.8378C25.5675 2.8378 32.1402 9.41541 32.1402 17.5C32.1402 25.585 25.5675 32.1622 17.488 32.1622Z" fill="#00A857"/>
</svg>
