<svg width="156" height="156" viewBox="0 0 156 156" fill="none" xmlns="http://www.w3.org/2000/svg">
<g filter="url(#filter0_d)">
<circle cx="78" cy="74" r="44" fill="#00A857"/>
</g>
<path d="M102.468 80.0481C101.517 78.6504 99.6017 78.2805 98.1997 79.2227L91.8188 83.493L91.8003 70.201L94.0171 72.2776C94.4885 72.7191 95.1031 72.9621 95.7484 72.9621C95.7496 72.9621 95.751 72.9621 95.7522 72.9621C96.4489 72.9611 97.1216 72.6691 97.5978 72.1608C98.0604 71.667 98.303 71.0227 98.281 70.3463C98.2589 69.6699 97.9747 69.0427 97.4809 68.5801L93.2782 64.6432C92.9905 64.3736 92.5389 64.3884 92.2694 64.6761C92 64.9638 92.0147 65.4153 92.3023 65.6849L96.505 69.6218C96.7206 69.8237 96.8446 70.0976 96.8543 70.3928C96.8639 70.688 96.758 70.9693 96.556 71.1849C96.345 71.4101 96.0589 71.5343 95.7501 71.5347C95.7495 71.5347 95.749 71.5347 95.7484 71.5347C95.4669 71.5347 95.1986 71.4286 94.9929 71.2358C94.9928 71.2358 94.9928 71.2358 94.9928 71.2358L78.3051 55.603C78.0301 55.3455 77.6021 55.3459 77.3278 55.6044L60.6835 71.2839C60.4686 71.4864 60.1875 71.5925 59.8922 71.5843C59.5969 71.5755 59.3228 71.4522 59.1202 71.237C58.9177 71.0221 58.8109 70.741 58.8198 70.4458C58.8286 70.1505 58.952 69.8764 59.1669 69.6738L77.0553 52.8225C77.4793 52.423 78.1445 52.422 78.5696 52.8204L89.0352 62.6243C89.3228 62.8938 89.7744 62.8791 90.0439 62.5914C90.3134 62.3037 90.2986 61.8522 90.011 61.5826L79.5456 51.7787C78.5717 50.8662 77.0479 50.8683 76.0766 51.7835L70.3501 57.178L70.3485 56.2158C70.3481 55.9125 70.2296 55.6275 70.0148 55.4135C69.8005 55.1997 69.5159 55.082 69.2132 55.082C69.2126 55.082 69.2121 55.082 69.2115 55.082L65.1151 55.0878C64.8118 55.0882 64.527 55.2067 64.3128 55.4215C64.0987 55.6362 63.981 55.9215 63.9814 56.2249L63.9928 63.167L58.1882 68.6351C57.6956 69.099 57.4133 69.7271 57.3931 70.4034C57.3729 71.0798 57.6173 71.7235 58.0813 72.2159C58.5451 72.7085 59.1731 72.9909 59.8496 73.0111C59.8755 73.0119 59.9014 73.0123 59.9272 73.0123C60.5752 73.0123 61.1888 72.7691 61.6623 72.3229L63.8741 70.2393L63.8829 76.5177C63.1673 76.4135 62.4433 76.3588 61.7159 76.3588H60.4947V75.9309C60.4947 74.4942 59.3259 73.3254 57.8893 73.3254H55.6055C54.1688 73.3253 53 74.4941 53 75.9308V87.1142C53 87.5083 53.3195 87.8278 53.7137 87.8278C54.1078 87.8278 54.4273 87.5083 54.4273 87.1142V75.9308C54.4273 75.2812 54.9559 74.7526 55.6055 74.7526H57.8892C58.5388 74.7526 59.0673 75.2812 59.0673 75.9308V77.0724V91.7009V92.8313C59.0673 93.4809 58.5388 94.0094 57.8892 94.0094H55.6055C54.9559 94.0094 54.4273 93.4809 54.4273 92.8313V91.5824C54.4273 91.1883 54.1078 90.8688 53.7137 90.8688C53.3195 90.8688 53 91.1883 53 91.5824V92.8313C53 94.2679 54.1688 95.4367 55.6055 95.4367H57.8892C59.3258 95.4367 60.4946 94.268 60.4946 92.8313V92.7343L70.9462 96.6921C70.9655 96.6994 70.9852 96.7059 71.0051 96.7114C71.4595 96.8398 71.9137 96.9041 72.3621 96.9041C72.6047 96.9041 72.8456 96.8853 73.0841 96.8476L88.4436 94.6335C88.4472 94.633 88.4507 94.6324 88.4543 94.6318C89.7602 94.4234 90.9921 93.8713 92.0168 93.0356C92.0257 93.0283 92.0345 93.0208 92.043 93.0131L101.966 84.0885C103.121 83.0626 103.337 81.3256 102.468 80.0481ZM68.9216 56.5099L68.9249 58.5206L65.4179 61.8243L65.4092 56.5147L68.9216 56.5099ZM77.8185 57.103L90.371 68.862L90.3928 84.4473L88.3722 85.7996L86.2324 85.6796L86.1759 85.1112C85.9768 83.1095 84.499 81.4992 82.545 81.115L82.5321 71.843C82.5312 71.1315 81.9519 70.5532 81.2404 70.5532C81.2398 70.5532 81.2394 70.5532 81.2387 70.5532L74.4365 70.5628C74.0915 70.5633 73.7673 70.6981 73.5237 70.9424C73.2801 71.1866 73.1462 71.5112 73.1467 71.8562L73.158 79.9402C71.8106 79.6322 70.5241 79.1235 69.3213 78.4199C69.1712 78.3321 69.0196 78.2474 68.8668 78.1649C68.8072 78.1328 68.7467 78.1026 68.6866 78.0713C68.5937 78.0228 68.5009 77.9739 68.4069 77.9274C68.3321 77.8902 68.2564 77.8551 68.1811 77.8192C68.1011 77.7813 68.0212 77.7429 67.9406 77.7063C67.8586 77.6691 67.7759 77.6336 67.6933 77.5979C67.6178 77.5652 67.5423 77.5324 67.4663 77.5011C67.3813 77.466 67.2959 77.4323 67.2104 77.3988C67.1345 77.3691 67.0585 77.3397 66.9822 77.3111C66.8976 77.2795 66.8125 77.2489 66.7272 77.219C66.6473 77.1907 66.5672 77.1632 66.4867 77.1363C66.4051 77.1091 66.3232 77.0824 66.241 77.0566C66.1534 77.0289 66.0654 77.0026 65.9773 76.9765C65.9017 76.9542 65.8261 76.9319 65.75 76.9109C65.6507 76.8832 65.5509 76.8573 65.451 76.8317C65.4042 76.8197 65.3577 76.8062 65.3106 76.7945L65.2996 68.8963L77.8185 57.103ZM81.1175 80.9363L75.1482 80.2491L74.5858 80.1844L74.5743 71.99L81.105 71.9808L81.1175 80.9363ZM101.015 83.0243L91.1018 91.9402C90.2757 92.61 89.2848 93.053 88.2345 93.2216L72.8816 95.4347C72.8784 95.4352 72.8753 95.4357 72.8721 95.4361L72.8614 95.4378C72.3963 95.5114 71.9119 95.4804 71.4216 95.3458L60.4947 91.2079V77.786H61.7159C62.7555 77.786 63.788 77.9061 64.7935 78.1392C64.8309 78.1479 64.8682 78.1567 64.9055 78.1657C65.029 78.1955 65.1522 78.2262 65.2749 78.2594C65.2856 78.2623 65.2963 78.2654 65.307 78.2684C65.43 78.302 65.5524 78.3374 65.6745 78.3744C65.6964 78.3811 65.7184 78.3876 65.7401 78.3943C65.87 78.4345 65.9993 78.4764 66.1279 78.5203C66.1412 78.5249 66.1544 78.5296 66.1677 78.5342C66.4355 78.6267 66.7008 78.7275 66.9627 78.8367C66.977 78.8427 66.9912 78.8486 67.0055 78.8547C67.136 78.9096 67.2658 78.9663 67.3947 79.0253C67.3981 79.0269 67.4017 79.0285 67.4051 79.0302C67.5297 79.0874 67.6534 79.1468 67.7764 79.2078C67.7908 79.215 67.8054 79.222 67.8198 79.2292C67.9399 79.2893 68.0591 79.3515 68.1775 79.4151C68.1999 79.4272 68.2222 79.4395 68.2445 79.4516C68.3641 79.5167 68.4829 79.5831 68.6006 79.652C70.2989 80.6454 72.1478 81.2889 74.0958 81.5646C74.102 81.5654 74.108 81.5662 74.1142 81.5669L82.1104 82.4875C82.1546 82.4939 82.1985 82.5012 82.2422 82.5094C83.4193 82.7305 84.3484 83.6003 84.6593 84.733C84.7054 84.9008 84.7378 85.0744 84.7556 85.2525L84.7873 85.5718L69.801 84.2588C69.4086 84.2245 69.0621 84.5149 69.0277 84.9074C68.9933 85.3001 69.2838 85.6463 69.6764 85.6807L85.5203 87.0689C85.5241 87.0691 85.5278 87.0691 85.5315 87.0693C85.5353 87.0696 85.5389 87.0702 85.5427 87.0705L88.5307 87.2382C88.544 87.239 88.5573 87.2393 88.5706 87.2393C88.5848 87.2393 88.5987 87.237 88.6128 87.2361C88.6287 87.2352 88.6446 87.2346 88.6604 87.2326C88.6817 87.2299 88.7025 87.2253 88.7234 87.2207C88.7384 87.2174 88.7534 87.215 88.7681 87.2107C88.7909 87.2041 88.8129 87.1952 88.8351 87.1863C88.847 87.1816 88.8593 87.1779 88.871 87.1725C88.9043 87.157 88.9367 87.1393 88.9676 87.1186L91.5039 85.4212C91.504 85.4211 91.5041 85.421 91.5042 85.4209L98.9946 80.408C99.7482 79.9015 100.777 80.1002 101.288 80.851C101.755 81.5371 101.639 82.4702 101.015 83.0243Z" fill="white"/>
<defs>
<filter id="filter0_d" x="0" y="0" width="156" height="156" filterUnits="userSpaceOnUse" color-interpolation-filters="sRGB">
<feFlood flood-opacity="0" result="BackgroundImageFix"/>
<feColorMatrix in="SourceAlpha" type="matrix" values="0 0 0 0 0 0 0 0 0 0 0 0 0 0 0 0 0 0 127 0"/>
<feOffset dy="4"/>
<feGaussianBlur stdDeviation="17"/>
<feColorMatrix type="matrix" values="0 0 0 0 0 0 0 0 0 0.658824 0 0 0 0 0.341176 0 0 0 0.66 0"/>
<feBlend mode="normal" in2="BackgroundImageFix" result="effect1_dropShadow"/>
<feBlend mode="normal" in="SourceGraphic" in2="effect1_dropShadow" result="shape"/>
</filter>
</defs>
</svg>
